<?xml version="1.0" encoding="UTF-8"?>
<svg width="43px" height="4px" viewBox="0 0 43 4" version="1.1" xmlns="http://www.w3.org/2000/svg" xmlns:xlink="http://www.w3.org/1999/xlink">
    <!-- Generator: Sketch 49 (51002) - http://www.bohemiancoding.com/sketch -->
    <title>Group 9</title>
    <desc>Created with Sketch.</desc>
    <defs></defs>
    <g id="Page-1" stroke="none" stroke-width="1" fill="none" fill-rule="evenodd">
        <g id="Group-9" fill="#FFFFFF" fill-rule="nonzero">
            <g id="Group-6">
                <path d="M35.1849206,0.425714285 L34.1099206,0.425714285 C34.0246032,0.425714285 33.9734127,0.579999995 34.0416667,0.682857135 L35.7821429,3.71714277 C35.7992063,3.74285705 35.8333333,3.76857134 35.8503968,3.76857134 L36.9253968,3.76857134 C37.0107143,3.76857134 37.0619048,3.61428563 36.9936508,3.51142849 L35.2531746,0.477142855 C35.2361111,0.45142857 35.2019841,0.425714285 35.1849206,0.425714285 Z" id="Shape"></path>
                <path d="M37.4202381,0.425714285 L36.3452381,0.425714285 C36.2599206,0.425714285 36.2087302,0.579999995 36.2769841,0.682857135 L38.0174603,3.71714277 C38.0345238,3.74285705 38.0686508,3.76857134 38.0857143,3.76857134 L39.1607143,3.76857134 C39.2460317,3.76857134 39.2972222,3.61428563 39.2289683,3.51142849 L37.4884921,0.477142855 C37.4884921,0.45142857 37.4543651,0.425714285 37.4202381,0.425714285 Z" id="Shape"></path>
                <path d="M32.9325397,0.425714285 L31.8575397,0.425714285 C31.7722222,0.425714285 31.7210317,0.579999995 31.7892857,0.682857135 L33.5297619,3.71714277 C33.5468254,3.74285705 33.5809524,3.76857134 33.5980159,3.76857134 L34.6730159,3.76857134 C34.7583333,3.76857134 34.8095238,3.61428563 34.7412698,3.51142849 L33.0007937,0.477142855 C32.9837302,0.45142857 32.9496032,0.425714285 32.9325397,0.425714285 Z" id="Shape"></path>
                <path d="M31.3456349,3.76857134 L32.4206349,3.76857134 C32.5059524,3.76857134 32.5571429,3.61428563 32.4888889,3.51142849 L30.7484127,0.477142855 C30.7313492,0.45142857 30.6972222,0.425714285 30.6801587,0.425714285 L29.6051587,0.425714285 C29.5198413,0.425714285 29.4686508,0.579999995 29.5369048,0.682857135 L31.277381,3.71714277 C31.277381,3.76857134 31.3115079,3.76857134 31.3456349,3.76857134 Z" id="Shape"></path>
                <path d="M40.8329365,0.682857135 L42.5734127,3.71714277 C42.5904762,3.74285705 42.6246032,3.76857134 42.6416667,3.76857134 L42.8123016,3.76857134 L42.8123016,0.579999995 C42.8123016,0.50285714 42.7611111,0.425714285 42.7099206,0.425714285 L40.9011905,0.425714285 C40.815873,0.425714285 40.781746,0.579999995 40.8329365,0.682857135 Z" id="Shape"></path>
                <path d="M39.740873,0.425714285 L38.597619,0.425714285 C38.5123016,0.425714285 38.4611111,0.579999995 38.5293651,0.682857135 L40.2698413,3.71714277 C40.2869048,3.74285705 40.3210317,3.76857134 40.3380952,3.76857134 L41.4813492,3.76857134 C41.5666667,3.76857134 41.6178571,3.61428563 41.5496032,3.51142849 L39.809127,0.477142855 C39.7920635,0.45142857 39.775,0.425714285 39.740873,0.425714285 Z" id="Shape"></path>
                <path d="M28.4277778,0.425714285 L0.119444444,0.425714285 C0.0682539683,0.425714285 0.0170634921,0.50285714 0.0170634921,0.579999995 L0.0170634921,3.61428563 C0.0170634921,3.69142848 0.0682539683,3.76857134 0.119444444,3.76857134 L30.168254,3.76857134 C30.2535714,3.76857134 30.3047619,3.61428563 30.2365079,3.51142849 L28.4960317,0.477142855 C28.4789683,0.45142857 28.4448413,0.425714285 28.4277778,0.425714285 Z" id="Shape"></path>
            </g>
        </g>
    </g>
</svg>