<svg xmlns="http://www.w3.org/2000/svg" width="18" height="18" viewBox="0 0 18 18">
    <path fill="#EE5744" fill-rule="nonzero" d="M15.281 13.213c.204-.006.405.046.605.079.21.034.229.029.335-.144.138-.227.138-.243.006-.411-.11-.14-.227-.274-.325-.423-.287-.435-.023-1.025.503-1.128.153-.03.31-.05.465-.058.291-.016.27-.016.36-.31.036-.119.024-.206-.082-.27-.075-.045-.141-.105-.212-.158l.002-.003c-.087-.059-.18-.11-.26-.177-.402-.336-.287-.989.216-1.218.178-.082.363-.143.543-.218a.26.26 0 0 0 .115-.085c.106-.167.023-.444-.147-.503-.176-.062-.358-.108-.529-.18-.443-.187-.528-.783-.157-1.145.145-.142.321-.248.482-.372.09-.07.183-.138.137-.277-.047-.145-.053-.316-.272-.308a3.06 3.06 0 0 1-.579-.022c-.511-.08-.718-.657-.4-1.108.108-.152.233-.293.353-.436.082-.098.098-.188.026-.289-.076-.107-.117-.254-.306-.198-.199.059-.4.12-.6.145-.523.068-.884-.445-.681-.955.062-.156.142-.305.21-.46.083-.192.078-.21-.067-.339-.022-.02-.045-.038-.066-.058-.068-.07-.142-.076-.233-.02-.149.093-.301.18-.453.265-.268.15-.525.14-.758-.021-.232-.16-.316-.401-.27-.697.025-.16.047-.32.082-.479.029-.13-.018-.203-.125-.248-.039-.016-.08-.03-.115-.052-.086-.055-.16-.03-.232.045-.114.118-.23.234-.345.35a.803.803 0 0 1-.438.245c-.394.063-.717-.17-.783-.574-.03-.177-.045-.358-.062-.538-.009-.092-.056-.142-.14-.16-.057-.011-.117-.018-.175-.03-.086-.02-.148.008-.197.093-.087.155-.18.307-.272.46-.157.261-.384.402-.67.4-.285-.003-.487-.152-.603-.413C9.116.696 9.069.58 9.02.465 8.9.178 8.932.211 8.608.241a.185.185 0 0 0-.175.141c-.048.156-.1.312-.134.47-.12.548-.753.82-1.152.484-.127-.107-.226-.25-.335-.378-.19-.224-.2-.226-.48-.11-.085.035-.13.09-.133.183-.005.169-.016.338-.019.507-.004.302-.127.545-.39.701a.661.661 0 0 1-.756-.025c-.126-.085-.25-.17-.38-.251-.141-.09-.44.03-.503.2-.01.03-.004.07.004.103.04.165.08.33.124.493a.754.754 0 0 1-.207.768c-.22.218-.483.255-.755.169a7.086 7.086 0 0 0-.354-.103c-.27-.07-.265-.064-.447.165-.084.107-.078.186-.014.284.092.143.18.29.257.443.124.245.108.501-.05.748-.154.242-.38.34-.644.338-.168 0-.337.002-.504-.002-.117-.003-.203.04-.252.157-.024.06-.05.117-.078.175-.037.079-.015.133.044.184.132.117.262.237.388.362a.676.676 0 0 1 .178.722.733.733 0 0 1-.536.523c-.14.038-.28.074-.42.11-.257.065-.285.057-.336.405-.013.094.02.153.098.189.137.064.275.127.41.197.262.138.438.345.429.675-.01.33-.187.555-.48.698-.105.05-.204.112-.306.17-.25.139-.247.143-.22.42.014.135.077.188.2.203.174.02.347.046.516.087a.63.63 0 0 1 .502.518.748.748 0 0 1-.256.741 9.124 9.124 0 0 0-.279.261c-.236.23-.237.244-.094.525.038.074.09.103.174.09.169-.026.337-.045.506-.066.31-.04.55.067.699.335.152.275.115.555-.068.831-.086.13-.168.262-.253.391-.067.1-.078.19.008.273.039.038.068.087.105.128.059.066.124.083.217.037.152-.075.309-.14.465-.203.29-.116.552-.081.764.125.22.214.268.487.164.801-.055.163-.11.328-.148.494-.012.052.014.125.048.168.043.055.11.09.167.132.07.05.134.049.21-.017.148-.127.3-.25.456-.365.247-.18.508-.216.763-.088.251.126.368.351.361.648-.002.134-.012.268-.016.4-.011.315-.01.312.27.405.094.031.16.015.225-.074.128-.172.25-.351.398-.505.096-.099.226-.189.353-.228.393-.125.744.086.857.493.044.159.084.32.115.483.025.129.094.186.22.182.038 0 .078 0 .116.005.111.014.179-.039.223-.148.077-.189.16-.376.24-.565a.702.702 0 0 1 .427-.393c.316-.114.645.008.84.315.092.143.167.298.262.438.033.05.11.105.158.095.3-.06.372-.045.407-.387l.003-.027c.02-.12.04-.239.056-.359.039-.29.167-.516.446-.632a.685.685 0 0 1 .767.12c.126.11.25.226.37.344.085.082.171.1.276.018.032-.024.069-.042.104-.062a.243.243 0 0 0 .132-.259c-.022-.179-.038-.359-.06-.538a.741.741 0 0 1 1.008-.8c.124.054.256.095.368.167.185.12.333.095.494-.086.081-.093.113-.162.066-.271-.08-.186-.161-.372-.221-.565a.73.73 0 0 1 .67-.958zm-.234-6.177c.332.23.412.661.185.995-.225.33-.698.43-1.01.214a.742.742 0 0 1-.179-1.037c.232-.336.66-.41 1.004-.172zM8.645 2.632c.34.232.414.632.18.981a.73.73 0 0 1-1.016.216c-.329-.224-.401-.656-.168-1 .211-.31.698-.405 1.004-.197zM2.992 10.76c-.342-.231-.421-.678-.181-1.03a.732.732 0 0 1 1.009-.195.707.707 0 0 1 .181.986c-.24.355-.681.46-1.009.24zm6.42 4.442a.732.732 0 0 1-.165-1.036.738.738 0 0 1 1.023-.181.729.729 0 0 1 .178 1.005c-.255.363-.702.455-1.036.212zm3.071-1.214c-.419.315-.887.208-1.113-.234-.306-.599-.786-.921-1.471-.897-.826.029-1.566.717-1.696 1.568-.053.347-.205.615-.545.725a.826.826 0 0 1-.42.024c-1.456-.34-2.616-1.121-3.454-2.367-.304-.452-.17-.916.328-1.2.76-.433 1.14-1.32.89-2.108-.203-.64-.649-.994-1.3-1.08-.21-.028-.401-.081-.54-.246-.166-.197-.198-.434-.12-.694a7.023 7.023 0 0 1 2.635-3.732c.082-.061.174-.116.276-.047.024.016.067.004.102.003a.707.707 0 0 1 .536.224c.104.103.198.218.287.336.46.611 1.264.81 1.97.46a1.8 1.8 0 0 0 .996-1.257c.034-.144.054-.296.115-.43a.746.746 0 0 1 .852-.418 5.412 5.412 0 0 1 2.079.923 4.922 4.922 0 0 1 1.356 1.436l-.09-.101-.019.014c.059.089.109.185.177.263.194.223.066.648-.135.809-.119.096-.252.173-.376.263-.545.397-.836.932-.805 1.59.033.687.396 1.145 1.001 1.393.035.014.073.024.108.038.188.076.381.142.562.232.328.164.459.5.346.88-.443 1.49-1.295 2.698-2.532 3.63z"/>
</svg>
