<svg xmlns="http://www.w3.org/2000/svg" width="10" height="14" viewBox="0 0 10 14">
    <path fill="#FFF" fill-rule="nonzero" d="M5.042.58C2.538.58.5 2.57.5 5.02c0 .665.284 1.479.687 2.376.403.896.935 1.863 1.466 2.758a55.45 55.45 0 0 0 2.122 3.288.327.327 0 0 0 .535 0s1.06-1.5 2.121-3.288c.531-.895 1.064-1.862 1.467-2.758.403-.897.687-1.711.687-2.377 0-2.448-2.038-4.44-4.543-4.44zm0 .635c2.155 0 3.894 1.7 3.894 3.804 0 .473-.244 1.258-.631 2.12-.388.862-.91 1.813-1.434 2.695-.913 1.538-1.61 2.52-1.829 2.833-.218-.314-.915-1.295-1.828-2.833C2.69 8.952 2.168 8 1.78 7.139c-.388-.862-.631-1.647-.631-2.12 0-2.104 1.739-3.804 3.893-3.804zm0 1.27c1.438 0 2.596 1.135 2.596 2.542 0 1.407-1.158 2.541-2.596 2.541-1.437 0-2.595-1.134-2.595-2.541s1.158-2.541 2.595-2.541zm0 .636c-1.07 0-1.946.857-1.946 1.906s.875 1.906 1.946 1.906c1.072 0 1.947-.857 1.947-1.906S6.114 3.12 5.042 3.12z"/>
</svg>
