<svg xmlns="http://www.w3.org/2000/svg" width="73" height="68" viewBox="0 0 73 68">
    <g fill="#FAFAFA" fill-rule="nonzero">
        <path d="M57.364 11.292v-1.188h-12.1c-.183.386-.355.783-.515 1.188h12.615zM57.364 4.684v-1.19h-6.566a14.15 14.15 0 0 0-1.543 1.19h8.11zM57.364 7.988V6.8H47.282c-.295.38-.576.777-.843 1.19h10.925zM57.364 34.422v-1.19h-8.109c.492.436 1.008.834 1.543 1.19h6.566zM47.554 33.233H1.932l-.354 1.189h47.21c-.427-.37-.84-.768-1.234-1.19zM45.118 29.928h-42.2l-.355 1.19h43.303c-.262-.384-.51-.78-.748-1.19zM57.364 31.118v-1.19H46.44c.266.413.548.81.842 1.19h10.082zM57.364 27.813v-1.188H44.75c.159.405.33.801.514 1.188h12.1zM43.589 26.625H3.903l-.355 1.188h40.51a21.77 21.77 0 0 1-.47-1.188zM42.687 23.32H4.889l-.355 1.189h38.414c-.098-.391-.184-.787-.261-1.188zM57.364 24.509V23.32H43.77c.084.402.178.798.284 1.188h13.311zM42.3 20.016H5.874l-.354 1.188h36.864a23.344 23.344 0 0 1-.084-1.188zM57.364 21.204v-1.188h-14.01c.019.4.048.797.089 1.188h13.921zM57.364 17.9v-1.188H43.443c-.04.392-.07.789-.09 1.188h14.011zM42.384 16.712H6.861L6.506 17.9H42.3c.017-.4.045-.796.083-1.188zM57.364 14.596v-1.188H44.052c-.105.39-.2.786-.283 1.188h13.595zM42.948 13.408H7.846l-.355 1.188h35.196c.077-.401.163-.798.26-1.188zM44.058 10.103H8.831l-.354 1.19h35.112c.145-.405.302-.801.47-1.19zM45.866 6.799H9.817l-.355 1.189h35.656c.237-.409.486-.805.748-1.19zM48.788 3.495H10.803l-.355 1.189h37.106c.394-.422.806-.819 1.234-1.19zM.946 36.537l-.354 1.189h55.617a12.597 12.597 0 0 1-4.215-1.189H.946zM57.412.19v1.19c7.793 0 14.132 7.886 14.132 17.578s-6.34 17.579-14.132 17.579v1.189c8.32 0 15.088-8.42 15.088-18.768C72.5 8.608 65.731.19 57.412.19zM51.993 1.38A12.6 12.6 0 0 1 56.21.19h-44.42l-.355 1.19h40.56zM3.637 45.92v7.282h7.31v3.574h-7.31v7.283h8.422v3.575H.592v-25.29H12.06v3.575H3.637zM30.546 42.345v25.289h-3.073V56.81h-9.746v10.824h-3.046V42.345h3.046v10.79h9.746v-10.79zM47.442 60.857c0 4.147-2.49 6.777-5.614 6.777h-8.422V42.345h7.442c3.152 0 5.694 2.697 5.694 6.845 0 2.664-.953 4.518-2.542 5.563 2.092.877 3.442 2.934 3.442 6.104zm-6.938-14.87h-4.052v7.283h4.052c1.642 0 2.992-1.619 2.992-3.71 0-2.056-1.35-3.573-2.992-3.573zm3.893 14.397c0-2.056-1.325-3.675-2.993-3.675h-4.952v7.283h4.952c1.668 0 2.993-1.517 2.993-3.608zM62.035 62.205h-9.456l-1.641 5.429h-3.311l7.972-25.289h3.417l7.972 25.289h-3.31l-1.643-5.429zm-1.033-3.473l-3.681-12.206-3.682 12.206h7.363z"/>
    </g>
</svg>
