<?xml version="1.0" encoding="utf-8"?>
<!-- Generator: Adobe Illustrator 17.0.0, SVG Export Plug-In . SVG Version: 6.00 Build 0)  -->
<!DOCTYPE svg PUBLIC "-//W3C//DTD SVG 1.1//EN" "http://www.w3.org/Graphics/SVG/1.1/DTD/svg11.dtd">
<svg version="1.1" id="Layer_1" xmlns="http://www.w3.org/2000/svg" xmlns:xlink="http://www.w3.org/1999/xlink" x="0px" y="0px"
	 width="13.281px" height="12.892px" viewBox="17.25 0 13.281 12.892" enable-background="new 17.25 0 13.281 12.892"
	 xml:space="preserve">
<title>Group 4</title>
<desc>Created with Sketch.</desc>
<g id="Page-1">
	<g id="Menu" transform="translate(-1389.000000, -201.000000)">
		<g id="Group-4" transform="translate(1389.000000, 201.000000)">
			<path id="Shape" fill="#FFFFFF" d="M26.375,12.892c-1.055,0-2.09-0.394-2.896-1.164l-4.967-4.864l1.227-1.202
				c0.921,0.901,2.416,0.901,3.337,0c0.441-0.432,0.69-1.014,0.69-1.634s-0.249-1.202-0.69-1.634l1.227-1.202l4.967,4.864
				c1.592,1.559,1.592,4.094,0,5.653C28.465,12.517,27.41,12.892,26.375,12.892z M22.098,7.991l2.608,2.554
				c0.921,0.901,2.416,0.901,3.337,0s0.921-2.366,0-3.268l-2.608-2.554c-0.134,0.808-0.537,1.559-1.132,2.16
				C23.69,7.484,22.903,7.86,22.098,7.991z"/>
			<path id="Shape_1_" fill="#FFFFFF" d="M21.407,8.047c-1.055,0-2.09-0.394-2.896-1.164c-1.592-1.559-1.592-4.094,0-5.653
				c1.592-1.559,4.181-1.559,5.773,0c0.767,0.751,1.189,1.765,1.189,2.836s-0.422,2.066-1.189,2.836
				C23.498,7.653,22.462,8.047,21.407,8.047z M21.407,1.738c-0.614,0-1.208,0.225-1.668,0.676c-0.921,0.901-0.921,2.366,0,3.268
				s2.416,0.901,3.337,0c0.441-0.432,0.69-1.014,0.69-1.634s-0.249-1.202-0.69-1.634C22.616,1.963,22.021,1.738,21.407,1.738z"/>
		</g>
	</g>
</g>
</svg>
