<?xml version="1.0" encoding="UTF-8"?>
<svg width="41px" height="40px" viewBox="0 0 41 40" version="1.1" xmlns="http://www.w3.org/2000/svg" xmlns:xlink="http://www.w3.org/1999/xlink">
    <!-- Generator: Sketch 49 (51002) - http://www.bohemiancoding.com/sketch -->
    <title>Group 4</title>
    <desc>Created with Sketch.</desc>
    <defs></defs>
    <g id="Page-1" stroke="none" stroke-width="1" fill="none" fill-rule="evenodd">
        <g id="Menu" transform="translate(-1389.000000, -201.000000)" fill="#FFFFFF" fill-rule="nonzero">
            <g id="Group-4" transform="translate(1389.000000, 201.000000)">
                <path d="M5.9739726,32.286385 L6.18493151,35.1971831 C6.18493151,35.3098592 6.3,35.3474178 6.37671233,35.2723005 L7.23972603,34.42723 C7.25890411,34.4084507 7.25890411,34.370892 7.25890411,34.3521127 L7.04794521,31.4225352 C7.04794521,31.3098592 6.93287671,31.2723005 6.85616438,31.3474178 L5.99315068,32.1924883 C5.99315068,32.2112676 5.9739726,32.2488263 5.9739726,32.286385 Z" id="Shape"></path>
                <path d="M4.19041096,34.0140845 L4.40136986,36.943662 C4.40136986,37.056338 4.51643836,37.0938967 4.59315068,37.0187793 L5.45616438,36.1737089 C5.47534247,36.1549296 5.47534247,36.1173709 5.47534247,36.0985915 L5.26438356,33.1690141 C5.26438356,33.056338 5.14931507,33.0187793 5.07260274,33.0938967 L4.20958904,33.9389671 C4.19041096,33.9577465 4.19041096,34.0140845 4.19041096,34.0140845 Z" id="Shape"></path>
                <path d="M7.75753425,30.5211268 L7.96849315,33.4507042 C7.96849315,33.5633803 8.08356164,33.600939 8.16027397,33.5258216 L9.02328767,32.6807512 C9.04246575,32.6619718 9.04246575,32.6244131 9.04246575,32.6056338 L8.83150685,29.6760563 C8.83150685,29.5633803 8.71643836,29.5258216 8.63972603,29.600939 L7.77671233,30.4460094 C7.77671233,30.4647887 7.75753425,30.5023474 7.75753425,30.5211268 Z" id="Shape"></path>
                <path d="M10.8452055,30.8591549 L10.6342466,27.9295775 C10.6342466,27.8169014 10.5191781,27.7793427 10.4424658,27.8544601 L9.57945205,28.6995305 C9.56027397,28.7183099 9.56027397,28.7558685 9.56027397,28.7746479 L9.77123288,31.7042254 C9.77123288,31.8169014 9.88630137,31.8544601 9.9630137,31.7793427 L10.8260274,30.9342723 C10.8452055,30.915493 10.8643836,30.8779343 10.8452055,30.8591549 Z" id="Shape"></path>
                <path d="M1.46712329,36.6431925 L0.0287671233,38.0516432 C-0.0095890411,38.0892019 -0.0095890411,38.1643192 0.0287671233,38.2018779 L1.71643836,39.8544601 L1.85068493,39.7230047 C1.86986301,39.7042254 1.86986301,39.6666667 1.86986301,39.6478873 L1.65890411,36.7183099 C1.63972603,36.6431925 1.52465753,36.5868545 1.46712329,36.6431925 Z" id="Shape"></path>
                <path d="M2.34931507,35.8169014 L2.56027397,38.7464789 C2.56027397,38.8591549 2.67534247,38.8967136 2.75205479,38.8215962 L3.65342466,37.9389671 C3.67260274,37.9201878 3.67260274,37.8826291 3.67260274,37.8638498 L3.46164384,34.9342723 C3.46164384,34.8215962 3.34657534,34.7840376 3.26986301,34.8591549 L2.36849315,35.741784 C2.34931507,35.7793427 2.34931507,35.7981221 2.34931507,35.8169014 Z" id="Shape"></path>
                <path d="M11.3438356,27.028169 L11.5547945,29.9389671 C11.5547945,30.0516432 11.669863,30.0892019 11.7465753,30.0140845 L31.9986301,10.1830986 C32.0369863,10.1455399 32.0369863,10.0704225 31.9986301,10.0328638 L30.4068493,8.4741784 C30.3684932,8.43661972 30.2917808,8.43661972 30.2534247,8.4741784 L11.3821918,26.9342723 C11.3630137,26.9530516 11.3438356,26.9906103 11.3438356,27.028169 Z" id="Shape"></path>
<!--
                <path d="M36.3328767,12.8309859 C35.2780822,12.8309859 34.2424658,12.4366197 33.4369863,11.6666667 L28.469863,6.8028169 L29.6972603,5.60093897 C30.6178082,6.50234742 32.1136986,6.50234742 33.0342466,5.60093897 C33.4753425,5.16901408 33.7246575,4.58685446 33.7246575,3.96713615 C33.7246575,3.34741784 33.4753425,2.76525822 33.0342466,2.33333333 L34.2616438,1.1314554 L39.2287671,5.99530516 C40.8205479,7.55399061 40.8205479,10.0892019 39.2287671,11.6478873 C38.4232877,12.4553991 37.3684932,12.8309859 36.3328767,12.8309859 Z M32.0561644,7.92957746 L34.6643836,10.4835681 C35.5849315,11.3849765 37.0808219,11.3849765 38.0013699,10.4835681 C38.9219178,9.58215962 38.9219178,8.11737089 38.0013699,7.21596244 L35.3931507,4.66197183 C35.2589041,5.46948357 34.8561644,6.22065728 34.2616438,6.82159624 C33.6479452,7.42253521 32.8616438,7.79812207 32.0561644,7.92957746 Z" id="Shape"></path>
                <path d="M31.3657534,7.98591549 C30.3109589,7.98591549 29.2753425,7.5915493 28.469863,6.82159624 C26.8780822,5.2629108 26.8780822,2.72769953 28.469863,1.16901408 C30.0616438,-0.389671362 32.6506849,-0.389671362 34.2424658,1.16901408 C35.009589,1.92018779 35.4315068,2.9342723 35.4315068,4.00469484 C35.4315068,5.07511737 35.009589,6.07042254 34.2424658,6.84037559 C33.4561644,7.5915493 32.4205479,7.98591549 31.3657534,7.98591549 Z M31.3657534,1.67605634 C30.7520548,1.67605634 30.1575342,1.90140845 29.6972603,2.35211268 C28.7767123,3.25352113 28.7767123,4.71830986 29.6972603,5.61971831 C30.6178082,6.52112676 32.1136986,6.52112676 33.0342466,5.61971831 C33.4753425,5.18779343 33.7246575,4.6056338 33.7246575,3.98591549 C33.7246575,3.36619718 33.4753425,2.78403756 33.0342466,2.35211268 C32.5739726,1.90140845 31.9794521,1.67605634 31.3657534,1.67605634 Z" id="Shape"></path>
-->
            </g>
        </g>
    </g>
</svg>