<svg xmlns="http://www.w3.org/2000/svg" width="43" height="14" viewBox="0 0 43 14">
    <g fill="#FFF" fill-rule="nonzero">
        <path d="M7.73 3.946h1.075c.085 0 .136-.155.068-.257L7.133.654C7.115.63 7.08.603 7.064.603H5.99c-.085 0-.136.154-.068.257l1.74 3.034c.018.026.052.052.069.052zM5.477 3.946h1.075c.086 0 .137-.155.069-.257L4.88.654C4.862.63 4.828.603 4.81.603H3.738c-.085 0-.137.154-.068.257l1.74 3.034c.017.026.051.052.068.052zM9.982 3.946h1.075c.085 0 .137-.155.068-.257L9.385.654C9.368.63 9.334.603 9.317.603H8.242c-.086 0-.137.154-.069.257l1.74 3.034c.018.026.052.052.07.052zM11.569.603h-1.075c-.085 0-.136.154-.068.257l1.74 3.034c.017.026.051.052.069.052h1.075c.085 0 .136-.155.068-.257L11.638.654c0-.025-.035-.051-.069-.051zM2.082 3.689L.342.654C.323.63.29.603.272.603h-.17V3.79c0 .078.05.155.102.155h1.808c.069 0 .12-.155.069-.257zM3.174 3.946h1.143c.085 0 .137-.155.068-.257L2.645.654C2.628.63 2.594.603 2.577.603H1.433c-.085 0-.136.154-.068.257l1.74 3.034c.018.026.035.052.069.052zM14.487 3.946h28.291c.051 0 .103-.077.103-.155V.757c0-.077-.052-.154-.103-.154H12.73c-.085 0-.136.154-.068.257l1.74 3.034c.035.026.052.052.086.052z"/>
        <g>
            <path d="M35.185 9.926H34.11c-.085 0-.137.154-.068.257l1.74 3.034c.017.026.051.052.068.052h1.075c.086 0 .137-.155.069-.258l-1.74-3.034c-.018-.026-.052-.051-.07-.051zM37.42 9.926h-1.075c-.085 0-.136.154-.068.257l1.74 3.034c.018.026.052.052.069.052h1.075c.085 0 .136-.155.068-.258l-1.74-3.034c0-.026-.035-.051-.069-.051zM32.933 9.926h-1.075c-.086 0-.137.154-.069.257l1.74 3.034c.018.026.052.052.069.052h1.075c.085 0 .137-.155.068-.258l-1.74-3.034c-.017-.026-.051-.051-.068-.051zM31.346 13.269h1.075c.085 0 .136-.155.068-.258l-1.74-3.034c-.018-.026-.052-.051-.069-.051h-1.075c-.085 0-.136.154-.068.257l1.74 3.034c0 .052.035.052.069.052zM40.833 10.183l1.74 3.034c.017.026.052.052.069.052h.17V10.08c0-.077-.05-.154-.102-.154H40.9c-.085 0-.12.154-.068.257zM39.74 9.926h-1.142c-.086 0-.137.154-.069.257l1.74 3.034c.018.026.052.052.07.052h1.142c.086 0 .137-.155.069-.258l-1.74-3.034c-.018-.026-.035-.051-.07-.051zM28.428 9.926H.119c-.05 0-.102.077-.102.154v3.034c0 .077.051.155.102.155h30.05c.085 0 .136-.155.068-.258l-1.741-3.034c-.017-.026-.051-.051-.068-.051z"/>
        </g>
    </g>
</svg>
