<svg xmlns="http://www.w3.org/2000/svg" width="13" height="14" viewBox="0 0 13 14">
    <g fill="#FFF" fill-rule="nonzero">
        <path d="M5.5 0h-5a.5.5 0 0 0-.5.501v5.01a.5.5 0 0 0 .5.502h5a.5.5 0 0 0 .5-.501V.502A.5.5 0 0 0 5.5 0zM12.5 0h-5a.5.5 0 0 0-.5.501v5.01a.5.5 0 0 0 .5.502h5a.5.5 0 0 0 .5-.501V.502A.5.5 0 0 0 12.5 0zM12 5.01H8V1.002h4V5.01zM5.5 7h-5a.5.5 0 0 0-.5.501v5.01a.5.5 0 0 0 .5.502h5a.5.5 0 0 0 .5-.501v-5.01A.5.5 0 0 0 5.5 7zm-3.139 5.01a.992.992 0 0 0 .14-.5c0-.554-.448-1.003-1-1.003a.987.987 0 0 0-.5.14v-1.28c.147.085.316.138.5.138.552 0 1-.448 1-1.002a.992.992 0 0 0-.14-.5H3.64a.992.992 0 0 0-.14.5c0 .554.448 1.002 1 1.002a.987.987 0 0 0 .5-.139v1.28a.987.987 0 0 0-.5-.139c-.552 0-1 .449-1 1.002 0 .184.054.354.14.501H2.36zM12.5 7h-5a.5.5 0 0 0-.5.501v5.01a.5.5 0 0 0 .5.502h5a.5.5 0 0 0 .5-.502v-5.01A.5.5 0 0 0 12.5 7zM8 10.214l2.207-2.212h1.086L8 11.302v-1.088zm0-2.212h.793L8 8.797v-.795zm4 .709v1.088L9.793 12.01H8.707L12 8.71zm0 3.3h-.793l.793-.795v.795z"/>
    </g>
</svg>
