<svg xmlns="http://www.w3.org/2000/svg" width="12" height="12" viewBox="0 0 12 12">
    <path fill="#FFF" fill-rule="nonzero" d="M11.655 10.65L8.738 7.754a4.577 4.577 0 0 0 1.16-3.034C9.899 2.118 7.679 0 4.95 0 2.22 0 0 2.118 0 4.72c0 2.604 2.22 4.721 4.95 4.721 1.024 0 2-.295 2.835-.854l2.94 2.916a.656.656 0 0 0 .465.189.659.659 0 0 0 .447-.172.597.597 0 0 0 .018-.87zM4.95 1.23c2.018 0 3.659 1.566 3.659 3.49 0 1.924-1.641 3.489-3.659 3.489-2.017 0-3.658-1.565-3.658-3.49 0-1.923 1.641-3.489 3.658-3.489z"/>
</svg>
