<?xml version="1.0" encoding="UTF-8"?>
<svg width="17px" height="17px" viewBox="0 0 17 17" version="1.1" xmlns="http://www.w3.org/2000/svg" xmlns:xlink="http://www.w3.org/1999/xlink">
    <!-- Generator: Sketch 49 (51002) - http://www.bohemiancoding.com/sketch -->
    <title>Shape Copy</title>
    <desc>Created with Sketch.</desc>
    <defs></defs>
    <g id="Page-1" stroke="none" stroke-width="1" fill="none" fill-rule="evenodd">
        <path d="M15.895491,8.08914105 C16.0547233,7.98380098 16.2434362,7.92239954 16.4208826,7.84672744 C16.6064033,7.76748767 16.6189841,7.75434364 16.6105343,7.57408255 C16.5990801,7.33842873 16.5896914,7.32678687 16.3940309,7.26876533 C16.2312309,7.22069571 16.0652387,7.17938588 15.9067574,7.11854776 C15.4438946,6.94053994 15.3368634,6.37459524 15.7009572,6.03735679 C15.807425,5.93858874 15.9223427,5.84676825 16.0413914,5.76339749 C16.2654057,5.60679567 16.247755,5.61787422 16.1619423,5.35630787 C16.1268285,5.25040449 16.0697452,5.19238295 15.9514476,5.19782834 C15.8667616,5.20195932 15.7815122,5.19050523 15.6966383,5.1859987 C15.6966383,5.18505984 15.6966383,5.18412098 15.6966383,5.18336989 C15.5954282,5.18336989 15.4932791,5.19144409 15.3931956,5.18205549 C14.8916513,5.13436141 14.6323354,4.59601919 14.9104287,4.17691216 C15.0084467,4.02857231 15.1233644,3.89168655 15.2264523,3.74672659 C15.2508629,3.71236432 15.2733958,3.66636019 15.2724569,3.62636476 C15.2670115,3.45154906 15.051447,3.288563 14.883577,3.32912174 C14.7102616,3.37099489 14.5401384,3.42770202 14.3653208,3.45962326 C13.9103445,3.54224292 13.5218401,3.14529299 13.6226747,2.69388919 C13.6621073,2.51757131 13.7458545,2.35139312 13.8072566,2.17995732 C13.841807,2.08344253 13.8789862,1.98749105 13.7676362,1.90787574 C13.6514042,1.82431722 13.5550761,1.7018899 13.3849529,1.81643079 C13.2343581,1.91801543 13.0770035,2.01546908 12.9110113,2.08757351 C12.4596027,2.2832319 11.9837834,1.96026412 11.9950499,1.46980375 C11.9988053,1.3040011 12.0222771,1.13819846 12.0412423,0.973146901 C12.0541987,0.860859266 12.0188972,0.786126024 11.9071716,0.747632771 C11.7883107,0.706886255 11.6765852,0.618070116 11.5558465,0.753641474 C11.4289113,0.895409308 11.3014128,1.04018149 11.1545735,1.15941669 C10.7739557,1.46886489 10.2091315,1.27020215 10.0968427,0.793449131 C10.0622923,0.647550314 10.045956,0.497708286 10.016851,0.350682838 C9.98042283,0.1674174 9.96596423,0.156338855 9.78138241,0.133618447 C9.75302854,0.13005078 9.72467467,0.12817306 9.69707189,0.123103217 C9.60506264,0.106579284 9.54290946,0.138312746 9.50028476,0.224875622 C9.43118394,0.366831227 9.35626212,0.506345797 9.28096475,0.645297051 C9.14820855,0.889212833 8.93752614,1.00901135 8.66469055,1.00619477 C8.39316937,1.00319042 8.19638224,0.867994601 8.07357806,0.626707626 C8.00729384,0.496769427 7.93875634,0.367394543 7.88148528,0.23332536 C7.83435401,0.123290989 7.75793,0.0924963866 7.64864554,0.112775759 C7.60883746,0.120286637 7.56902937,0.130238551 7.52865797,0.131552955 C7.42988885,0.134181763 7.38501087,0.189011176 7.36754789,0.280268351 C7.34032066,0.423726132 7.3104646,0.566620597 7.28023299,0.709327291 C7.24718477,0.863488074 7.18484381,1.00225156 7.06260295,1.1077794 C6.78206862,1.35000523 6.39844638,1.33855114 6.12823962,1.07398045 C6.00994201,0.957937372 5.90009423,0.832317928 5.78930758,0.708388431 C5.73259984,0.644921507 5.66819337,0.631777469 5.59252045,0.660131036 C5.53938041,0.680034864 5.48811812,0.705008535 5.43497808,0.724161276 C5.35573746,0.752702615 5.32137482,0.804527677 5.32851023,0.891090553 C5.34184219,1.04863123 5.34954092,1.20673523 5.35874185,1.36465145 C5.37413931,1.63598194 5.26879811,1.85229524 5.0393383,1.99237313 C4.80969073,2.13263878 4.56877671,2.12325019 4.33518588,1.98842991 C4.23322461,1.92984506 4.13351662,1.86769254 4.03286977,1.80722997 C3.78144041,1.65588576 3.82556729,1.6643355 3.58277554,1.84741317 C3.51386249,1.899426 3.49433399,1.96195407 3.51930793,2.03818949 C3.56493701,2.17695297 3.60793725,2.31703085 3.66539609,2.45072449 C3.86406096,2.91452124 3.50560043,3.42939197 3.00593387,3.38019572 C2.84670153,3.36442287 2.69122468,3.3086546 2.53480895,3.26809585 C2.2623489,3.1974936 2.25389908,3.20068572 2.09241345,3.42619985 C2.04377999,3.49398553 2.03645681,3.55632582 2.08471472,3.62674031 C2.17202962,3.75348638 2.25465017,3.88361235 2.34327949,4.00941957 C2.50232405,4.23455816 2.53480895,4.47453073 2.40918816,4.72032423 C2.28300404,4.96743213 2.06650064,5.07746651 1.79178731,5.07765428 C1.6460747,5.07765428 1.50017432,5.07690319 1.35408616,5.08103417 C1.19241276,5.08572847 1.01797074,5.32157006 1.06021988,5.47892297 C1.06773084,5.50671322 1.09458252,5.5322502 1.11805427,5.55252958 C1.23860516,5.65430198 1.35953161,5.75569884 1.48271134,5.85409135 C1.70015361,6.02778042 1.78784406,6.25798885 1.73094854,6.52349841 C1.67330193,6.79313895 1.48252356,6.95124294 1.21907667,7.0231596 C1.10584896,7.05432975 0.99318457,7.08643876 0.881646825,7.12305429 C0.627964177,7.20586173 0.635099589,7.20773945 0.613693355,7.46705253 C0.603929108,7.58797767 0.650872603,7.64261932 0.755274936,7.6835536 C0.905869669,7.742514 1.05477444,7.80785865 1.19823376,7.8818408 C1.42975907,8.00126377 1.55481655,8.19767324 1.56176418,8.45811296 C1.56871182,8.71310729 1.44121329,8.89674827 1.22921646,9.02743756 C1.09477029,9.11043276 0.962201863,9.19624455 0.825877953,9.27623541 C0.730864319,9.33200368 0.685235241,9.40579806 0.710021407,9.51733461 C0.722226716,9.57253957 0.732554285,9.62830784 0.741567436,9.68445166 C0.754148292,9.76125039 0.801091787,9.7899795 0.875450284,9.79861702 C1.04425909,9.81908416 1.21250458,9.84349451 1.3798112,9.87259917 C1.64062925,9.91785221 1.82596217,10.06131 1.91102379,10.315741 C1.99214215,10.5592812 1.94163095,10.77935 1.76531118,10.967873 C1.6742408,11.0655145 1.58148045,11.1616537 1.48834456,11.257793 C1.31859688,11.4333597 1.2917452,11.4418095 1.43877223,11.7232797 C1.47839254,11.7989518 1.53660247,11.8258031 1.61847193,11.8137857 C1.76268234,11.7931308 1.90689276,11.7702226 2.05147872,11.7553887 C2.33520521,11.7268473 2.58776121,11.7914409 2.75750889,12.0392999 C2.92800767,12.2882855 2.90791585,12.5414021 2.74999793,12.7922654 C2.69385351,12.8810816 2.64784889,12.9764697 2.59752546,13.0694169 C2.47284354,13.2966209 2.47772566,13.2975598 2.64953885,13.4888994 C2.73253495,13.5812832 2.8108367,13.5886064 2.91711678,13.538659 C3.06714819,13.4676812 3.21943288,13.3997078 3.37603638,13.3463805 C3.62408581,13.2622587 3.85880329,13.2971843 4.05596597,13.478572 C4.25519416,13.6610863 4.32279279,13.8877271 4.25068759,14.1522978 C4.22083152,14.2621444 4.1936043,14.3725543 4.16881813,14.483152 C4.10403611,14.7702553 4.11098374,14.780395 4.37574506,14.9163419 C4.44634807,14.9523941 4.50286804,14.9480754 4.56389459,14.8962503 C4.68425771,14.7933513 4.80856408,14.6955221 4.93155604,14.5960029 C5.15744814,14.4133008 5.40624866,14.3723665 5.67025888,14.4961083 C5.93990232,14.6226666 6.06139208,14.8472418 6.06345759,15.1422316 C6.06439646,15.280244 6.07059301,15.4178808 6.07190742,15.5558932 C6.07284629,15.6625477 6.11190328,15.7340888 6.22569431,15.752866 C6.27714438,15.7616913 6.32671672,15.7827218 6.37779124,15.7947392 C6.46041179,15.8144552 6.52200166,15.7943636 6.57119844,15.7147483 C6.65194125,15.5836835 6.74263608,15.4582518 6.83351869,15.333759 C7.00176418,15.1039261 7.22972179,14.9995249 7.51100721,15.0460923 C7.80205688,15.0939742 7.9866387,15.2716065 8.07245141,15.5549544 C8.11714162,15.7023554 8.16164405,15.8506952 8.22060508,15.9922753 C8.23938248,16.036965 8.29965793,16.0777115 8.34923026,16.0925455 C8.41326119,16.111886 8.48555417,16.1043751 8.55427945,16.1068162 C8.6369,16.1092572 8.68703565,16.0760216 8.71238514,15.9894587 C8.76195747,15.8223416 8.81697525,15.6563512 8.88025508,15.494304 C8.97996306,15.2385586 9.16961478,15.0825201 9.44169928,15.0498478 C9.70965275,15.0179265 9.92427841,15.1258954 10.0791919,15.3480297 C10.1488561,15.4477366 10.2130748,15.5513867 10.2814245,15.6514692 C10.4419713,15.8886251 10.4417835,15.885433 10.7142435,15.8153941 C10.8066283,15.791547 10.8507552,15.7464818 10.855074,15.6488403 C10.8638994,15.458064 10.8654016,15.2655978 10.9007031,15.0789524 C10.9237993,14.9580273 10.9791926,14.827338 11.0591843,14.7349542 C11.3064827,14.4478509 11.6998692,14.4288859 12.0091329,14.6722384 C12.1298716,14.7676265 12.2485447,14.8665823 12.3613969,14.9715469 C12.450214,15.053791 12.5362145,15.0614896 12.6347958,14.9963328 C12.6650274,14.9766167 12.696949,14.9576517 12.7298095,14.9424422 C12.8267008,14.8973769 12.8520503,14.8247092 12.8285786,14.7225612 C12.7878316,14.544929 12.7529057,14.3656067 12.7162897,14.1866601 C12.6779838,13.9990759 12.7283073,13.831771 12.8449149,13.6851211 C13.035881,13.4436464 13.3637344,13.369852 13.6852035,13.4988514 C13.8354227,13.5589384 13.978882,13.6363004 14.1304156,13.6920687 C14.1829923,13.7117848 14.2742504,13.7149769 14.3080498,13.6832434 C14.5144134,13.4894628 14.5806976,13.4650524 14.4239063,13.1959752 C14.4197753,13.1890276 14.4162076,13.1817045 14.4122643,13.1743814 C14.362692,13.07674 14.3153729,12.9783475 14.2633596,12.8820204 C14.1379265,12.6491832 14.1191491,12.4189748 14.278757,12.1942117 C14.444937,11.9602479 14.6757112,11.8693662 14.95587,11.9018508 C15.1166045,11.920628 15.2771513,11.9442873 15.4369469,11.9713264 C15.5482969,11.9897281 15.6265987,11.959309 15.6665945,11.8479602 C15.6789876,11.8137857 15.6990794,11.7826156 15.7161668,11.7503188 C15.7655514,11.6568084 15.7552238,11.5726865 15.681992,11.4940101 C15.5685765,11.3725216 15.4587287,11.2482166 15.3451255,11.1267281 C14.938407,10.6901583 15.2461686,10.1191438 15.7187957,10.0368996 C15.846482,10.0149303 15.9737927,9.9788781 16.1020424,9.97624929 C16.314227,9.97249385 16.4195682,9.88104891 16.4499876,9.66792773 C16.465385,9.55883222 16.4533675,9.4919854 16.3572272,9.43490272 C16.1936761,9.33782461 16.028435,9.24130982 15.8761503,9.12845887 C15.5077377,8.85562621 15.5131832,8.3426332 15.895491,8.08914105 Z M12.3826154,3.6535917 C12.7711197,3.65753491 13.0678026,3.93637628 13.0659249,4.29558404 C13.0638594,4.65047306 12.7403248,4.9589824 12.3739778,4.95522696 C11.9811546,4.95128375 11.6707642,4.65141192 11.6737686,4.2798112 C11.6773363,3.91684799 11.9798402,3.64946071 12.3826154,3.6535917 Z M4.90038556,3.59087586 C5.29621311,3.59237804 5.57036312,3.85075226 5.57224086,4.22404293 C5.57393083,4.59357815 5.26335266,4.8906334 4.87728936,4.88856791 C4.49385489,4.88650242 4.20318077,4.60409338 4.20468296,4.23530924 C4.2065607,3.90201401 4.54380277,3.58956146 4.90038556,3.59087586 Z M4.76349833,12.3894946 C4.36560526,12.3889313 4.06178696,12.0990114 4.06385247,11.7206508 C4.06554244,11.3663251 4.37781057,11.0786585 4.7644372,11.0750908 C5.13566636,11.0718987 5.44004798,11.3580632 5.44023575,11.7116378 C5.44042353,12.0926271 5.14411619,12.3894946 4.76349833,12.3894946 Z M12.2810296,12.4719265 C11.8761889,12.459158 11.5791305,12.1630416 11.5903969,11.7903142 C11.6031656,11.3734605 11.9854734,11.1406232 12.3101346,11.1479464 C12.6935691,11.1569594 13.0003918,11.4530758 12.9932564,11.8010172 C12.9848065,12.1947751 12.6774205,12.484695 12.2810296,12.4719265 Z M14.0784022,10.0502314 C13.9137244,10.4913078 13.4824076,10.6445297 13.0642349,10.4314085 C12.497533,10.1422397 11.9404076,10.1431786 11.4061907,10.5016353 C10.7626892,10.933323 10.5422426,11.8081526 10.8969476,12.50028 C11.0415336,12.7825013 11.064442,13.0557095 10.8518819,13.3052585 C10.7688858,13.4027121 10.6498371,13.4890872 10.5300373,13.5315237 C9.18407338,14.004709 7.83735839,14.0060234 6.49777881,13.5042967 C6.01200752,13.3225335 5.86817265,12.9137539 6.11359325,12.4565292 C6.48651237,11.760834 6.31263367,10.9177379 5.68847296,10.4612643 C5.18279763,10.090978 4.63581202,10.0513581 4.06929792,10.3110467 C3.88715716,10.394793 3.70520417,10.4511246 3.50597598,10.3985484 C3.26712748,10.3360204 3.11371613,10.1771653 3.03560216,9.94714464 C2.64747334,8.79985793 2.60747748,7.64130491 2.93157537,6.47355106 C2.98678092,6.27470055 3.05813503,6.0801688 3.13080357,5.88676367 C3.16310069,5.80057634 3.20722758,5.71476455 3.32571296,5.7151401 C3.35331573,5.7151401 3.38148183,5.68472104 3.40852128,5.6668827 C3.57695454,5.55403175 3.76435298,5.53187466 3.95682131,5.56529807 C4.0953985,5.58952065 4.23247351,5.62726282 4.36691968,5.67007483 C5.06337337,5.89183352 5.81240378,5.63834136 6.1875762,5.03033574 C6.4639795,4.58212406 6.51186186,4.10349333 6.30624935,3.6087142 C6.25498706,3.48553579 6.18982948,3.36348401 6.16635774,3.23448467 C6.10871112,2.91846446 6.29404404,2.62798123 6.62133409,2.50311287 C7.31591005,2.23891772 8.03639881,2.13113661 8.77754271,2.15010158 C9.41879085,2.16643774 10.0391961,2.28398299 10.6335007,2.5337197 C10.5916271,2.52376779 10.5497535,2.51381587 10.5076922,2.50386396 C10.5050633,2.51062375 10.50281,2.51738354 10.5001812,2.52414333 C10.5944437,2.56000777 10.6858897,2.60601191 10.7827811,2.62985895 C11.0576822,2.69820794 11.1846174,3.07450296 11.1108222,3.29288175 C11.0670709,3.42281995 11.0030399,3.54581059 10.9525287,3.67387107 C10.7309554,4.23718696 10.7869121,4.77646805 11.1656522,5.24552241 C11.5616675,5.73579501 12.0981378,5.89277238 12.7147875,5.77447604 C12.7506524,5.76752848 12.7855783,5.75626216 12.8210676,5.74912682 C13.0122215,5.7117602 13.2022488,5.66444167 13.3949049,5.64097017 C13.7451034,5.59797039 14.0308954,5.78179915 14.1446864,6.11659656 C14.593654,7.43588238 14.564549,8.74897173 14.0784022,10.0502314 Z" id="Shape-Copy" fill="#EE5744" fill-rule="nonzero" transform="translate(8.612433, 8.106941) rotate(91.000000) translate(-8.612433, -8.106941) "></path>
    </g>
</svg>